<svg width="704" height="672" viewBox="0 0 704 672" fill="none" xmlns="http://www.w3.org/2000/svg">
<path d="M352 0C303.819 0 258.69 27.883 252.156 32H224C221.881 31.9712 219.777 32.3638 217.81 33.155C215.844 33.9462 214.054 35.1201 212.545 36.6087C211.036 38.0973 209.838 39.8709 209.02 41.8264C208.202 43.7819 207.781 45.8804 207.781 48H48C21.536 48 0 69.536 0 96V608C0 634.464 21.536 656 48 656V672H112V656H592V672H656V656C682.464 656 704 634.464 704 608V96C704 69.536 682.464 48 656 48H496.219C496.219 45.8804 495.798 43.7819 494.98 41.8264C494.162 39.8709 492.964 38.0973 491.455 36.6087C489.946 35.1201 488.156 33.9462 486.19 33.155C484.223 32.3638 482.119 31.9712 480 32H451.844C445.31 27.883 400.181 0 352 0ZM352 32C371.181 32 394.136 40.1874 411.938 48H292.062C309.864 40.1874 332.819 32 352 32ZM48 80H656C664.832 80 672 87.184 672 96V192H32V96C32 87.184 39.184 80 48 80ZM88 112C81.6348 112 75.5303 114.529 71.0294 119.029C66.5286 123.53 64 129.635 64 136C64 142.365 66.5286 148.47 71.0294 152.971C75.5303 157.471 81.6348 160 88 160C94.3652 160 100.47 157.471 104.971 152.971C109.471 148.47 112 142.365 112 136C112 129.635 109.471 123.53 104.971 119.029C100.47 114.529 94.3652 112 88 112ZM144 112V160H176V112H144ZM208 112V160H240V112H208ZM272 112V160H304V112H272ZM376 112C369.635 112 363.53 114.529 359.029 119.029C354.529 123.53 352 129.635 352 136C352 142.365 354.529 148.47 359.029 152.971C363.53 157.471 369.635 160 376 160C382.365 160 388.47 157.471 392.971 152.971C397.471 148.47 400 142.365 400 136C400 129.635 397.471 123.53 392.971 119.029C388.47 114.529 382.365 112 376 112ZM456 112C449.635 112 443.53 114.529 439.029 119.029C434.529 123.53 432 129.635 432 136C432 142.365 434.529 148.47 439.029 152.971C443.53 157.471 449.635 160 456 160C462.365 160 468.47 157.471 472.971 152.971C477.471 148.47 480 142.365 480 136C480 129.635 477.471 123.53 472.971 119.029C468.47 114.529 462.365 112 456 112ZM536 112C529.635 112 523.53 114.529 519.029 119.029C514.529 123.53 512 129.635 512 136C512 142.365 514.529 148.47 519.029 152.971C523.53 157.471 529.635 160 536 160C542.365 160 548.47 157.471 552.971 152.971C557.471 148.47 560 142.365 560 136C560 129.635 557.471 123.53 552.971 119.029C548.47 114.529 542.365 112 536 112ZM616 112C609.635 112 603.53 114.529 599.029 119.029C594.529 123.53 592 129.635 592 136C592 142.365 594.529 148.47 599.029 152.971C603.53 157.471 609.635 160 616 160C622.365 160 628.47 157.471 632.971 152.971C637.471 148.47 640 142.365 640 136C640 129.635 637.471 123.53 632.971 119.029C628.47 114.529 622.365 112 616 112ZM112 240C120.832 240 128 247.168 128 256C128 264.832 120.832 272 112 272C103.168 272 96 264.832 96 256C96 247.168 103.168 240 112 240ZM208 240C216.832 240 224 247.168 224 256C224 264.832 216.832 272 208 272C199.168 272 192 264.832 192 256C192 247.168 199.168 240 208 240ZM304 240C312.832 240 320 247.168 320 256C320 264.832 312.832 272 304 272C295.168 272 288 264.832 288 256C288 247.168 295.168 240 304 240ZM400 240C408.832 240 416 247.168 416 256C416 264.832 408.832 272 400 272C391.168 272 384 264.832 384 256C384 247.168 391.168 240 400 240ZM496 240C504.832 240 512 247.168 512 256C512 264.832 504.832 272 496 272C487.168 272 480 264.832 480 256C480 247.168 487.168 240 496 240ZM592 240C600.832 240 608 247.168 608 256C608 264.832 600.832 272 592 272C583.168 272 576 264.832 576 256C576 247.168 583.168 240 592 240ZM64 288C72.832 288 80 295.168 80 304C80 312.832 72.832 320 64 320C55.168 320 48 312.832 48 304C48 295.168 55.168 288 64 288ZM160 288C168.832 288 176 295.168 176 304C176 312.832 168.832 320 160 320C151.168 320 144 312.832 144 304C144 295.168 151.168 288 160 288ZM256 288C264.832 288 272 295.168 272 304C272 312.832 264.832 320 256 320C247.168 320 240 312.832 240 304C240 295.168 247.168 288 256 288ZM352 288C360.832 288 368 295.168 368 304C368 312.832 360.832 320 352 320C343.168 320 336 312.832 336 304C336 295.168 343.168 288 352 288ZM448 288C456.832 288 464 295.168 464 304C464 312.832 456.832 320 448 320C439.168 320 432 312.832 432 304C432 295.168 439.168 288 448 288ZM544 288C552.832 288 560 295.168 560 304C560 312.832 552.832 320 544 320C535.168 320 528 312.832 528 304C528 295.168 535.168 288 544 288ZM640 288C648.832 288 656 295.168 656 304C656 312.832 648.832 320 640 320C631.168 320 624 312.832 624 304C624 295.168 631.168 288 640 288ZM112 336C120.832 336 128 343.168 128 352C128 360.832 120.832 368 112 368C103.168 368 96 360.832 96 352C96 343.168 103.168 336 112 336ZM208 336C216.832 336 224 343.168 224 352C224 360.832 216.832 368 208 368C199.168 368 192 360.832 192 352C192 343.168 199.168 336 208 336ZM304 336C312.832 336 320 343.168 320 352C320 360.832 312.832 368 304 368C295.168 368 288 360.832 288 352C288 343.168 295.168 336 304 336ZM400 336C408.832 336 416 343.168 416 352C416 360.832 408.832 368 400 368C391.168 368 384 360.832 384 352C384 343.168 391.168 336 400 336ZM496 336C504.832 336 512 343.168 512 352C512 360.832 504.832 368 496 368C487.168 368 480 360.832 480 352C480 343.168 487.168 336 496 336ZM592 336C600.832 336 608 343.168 608 352C608 360.832 600.832 368 592 368C583.168 368 576 360.832 576 352C576 343.168 583.168 336 592 336ZM64 384C72.832 384 80 391.168 80 400C80 408.832 72.832 416 64 416C55.168 416 48 408.832 48 400C48 391.168 55.168 384 64 384ZM160 384C168.832 384 176 391.168 176 400C176 408.832 168.832 416 160 416C151.168 416 144 408.832 144 400C144 391.168 151.168 384 160 384ZM256 384C264.832 384 272 391.168 272 400C272 408.832 264.832 416 256 416C247.168 416 240 408.832 240 400C240 391.168 247.168 384 256 384ZM352 384C360.832 384 368 391.168 368 400C368 408.832 360.832 416 352 416C343.168 416 336 408.832 336 400C336 391.168 343.168 384 352 384ZM448 384C456.832 384 464 391.168 464 400C464 408.832 456.832 416 448 416C439.168 416 432 408.832 432 400C432 391.168 439.168 384 448 384ZM544 384C552.832 384 560 391.168 560 400C560 408.832 552.832 416 544 416C535.168 416 528 408.832 528 400C528 391.168 535.168 384 544 384ZM640 384C648.832 384 656 391.168 656 400C656 408.832 648.832 416 640 416C631.168 416 624 408.832 624 400C624 391.168 631.168 384 640 384ZM112 432C120.832 432 128 439.168 128 448C128 456.832 120.832 464 112 464C103.168 464 96 456.832 96 448C96 439.168 103.168 432 112 432ZM208 432C216.832 432 224 439.168 224 448C224 456.832 216.832 464 208 464C199.168 464 192 456.832 192 448C192 439.168 199.168 432 208 432ZM304 432C312.832 432 320 439.168 320 448C320 456.832 312.832 464 304 464C295.168 464 288 456.832 288 448C288 439.168 295.168 432 304 432ZM400 432C408.832 432 416 439.168 416 448C416 456.832 408.832 464 400 464C391.168 464 384 456.832 384 448C384 439.168 391.168 432 400 432ZM496 432C504.832 432 512 439.168 512 448C512 456.832 504.832 464 496 464C487.168 464 480 456.832 480 448C480 439.168 487.168 432 496 432ZM592 432C600.832 432 608 439.168 608 448C608 456.832 600.832 464 592 464C583.168 464 576 456.832 576 448C576 439.168 583.168 432 592 432ZM64 480C72.832 480 80 487.168 80 496C80 504.832 72.832 512 64 512C55.168 512 48 504.832 48 496C48 487.168 55.168 480 64 480ZM160 480C168.832 480 176 487.168 176 496C176 504.832 168.832 512 160 512C151.168 512 144 504.832 144 496C144 487.168 151.168 480 160 480ZM256 480C264.832 480 272 487.168 272 496C272 504.832 264.832 512 256 512C247.168 512 240 504.832 240 496C240 487.168 247.168 480 256 480ZM352 480C360.832 480 368 487.168 368 496C368 504.832 360.832 512 352 512C343.168 512 336 504.832 336 496C336 487.168 343.168 480 352 480ZM448 480C456.832 480 464 487.168 464 496C464 504.832 456.832 512 448 512C439.168 512 432 504.832 432 496C432 487.168 439.168 480 448 480ZM544 480C552.832 480 560 487.168 560 496C560 504.832 552.832 512 544 512C535.168 512 528 504.832 528 496C528 487.168 535.168 480 544 480ZM640 480C648.832 480 656 487.168 656 496C656 504.832 648.832 512 640 512C631.168 512 624 504.832 624 496C624 487.168 631.168 480 640 480ZM112 528C120.832 528 128 535.168 128 544C128 552.832 120.832 560 112 560C103.168 560 96 552.832 96 544C96 535.168 103.168 528 112 528ZM208 528C216.832 528 224 535.168 224 544C224 552.832 216.832 560 208 560C199.168 560 192 552.832 192 544C192 535.168 199.168 528 208 528ZM304 528C312.832 528 320 535.168 320 544C320 552.832 312.832 560 304 560C295.168 560 288 552.832 288 544C288 535.168 295.168 528 304 528ZM400 528C408.832 528 416 535.168 416 544C416 552.832 408.832 560 400 560C391.168 560 384 552.832 384 544C384 535.168 391.168 528 400 528ZM496 528C504.832 528 512 535.168 512 544C512 552.832 504.832 560 496 560C487.168 560 480 552.832 480 544C480 535.168 487.168 528 496 528ZM592 528C600.832 528 608 535.168 608 544C608 552.832 600.832 560 592 560C583.168 560 576 552.832 576 544C576 535.168 583.168 528 592 528ZM64 576C72.832 576 80 583.168 80 592C80 600.832 72.832 608 64 608C55.168 608 48 600.832 48 592C48 583.168 55.168 576 64 576ZM160 576C168.832 576 176 583.168 176 592C176 600.832 168.832 608 160 608C151.168 608 144 600.832 144 592C144 583.168 151.168 576 160 576ZM256 576C264.832 576 272 583.168 272 592C272 600.832 264.832 608 256 608C247.168 608 240 600.832 240 592C240 583.168 247.168 576 256 576ZM352 576C360.832 576 368 583.168 368 592C368 600.832 360.832 608 352 608C343.168 608 336 600.832 336 592C336 583.168 343.168 576 352 576ZM448 576C456.832 576 464 583.168 464 592C464 600.832 456.832 608 448 608C439.168 608 432 600.832 432 592C432 583.168 439.168 576 448 576ZM544 576C552.832 576 560 583.168 560 592C560 600.832 552.832 608 544 608C535.168 608 528 600.832 528 592C528 583.168 535.168 576 544 576ZM640 576C648.832 576 656 583.168 656 592C656 600.832 648.832 608 640 608C631.168 608 624 600.832 624 592C624 583.168 631.168 576 640 576Z" fill="#803300"/>
</svg>
