<?xml version="1.0"?>
<svg xmlns:rdf="http://www.w3.org/1999/02/22-rdf-syntax-ns#" xmlns="http://www.w3.org/2000/svg" xmlns:cc="http://creativecommons.org/ns#" xmlns:dc="http://purl.org/dc/elements/1.1/" xmlns:svg="http://www.w3.org/2000/svg" id="svg2860" viewBox="0 0 101.31 157.71" version="1.1">
  <g id="layer1" transform="translate(-318.39 -343.06)">
    <path id="path2996" d="m389.54 500.21c-0.083-0.278-0.837-3.514-0.837-3.884 0-0.369 0.084-1.941-0.085-2.403-0.166-0.463-0.419-1.85-0.501-2.22-0.084-0.369-0.084-1.293 0.082-1.94 0.169-0.647 0.419-1.941 0.253-2.959-0.169-1.017-0.588-3.143-0.672-3.42-0.083-0.277-0.166-1.388 0.084-1.849 0.253-0.463 0.588-1.202 0.504-2.034-0.085-0.833-0.335-2.034-0.251-2.682 0.082-0.647 0.082-1.572 0.335-2.404 0.251-0.832 0.67-2.218 0.837-2.958 0.168-0.74 1.006-3.698 1.172-4.623 0.169-0.924 0.588-3.143 0.588-3.419 0-0.279 0.083-1.11 0.083-1.11s1.172-1.572 1.424-1.849c0.252-0.278 2.263-2.127 2.597-2.127 0.336 0 1.425-0.646 1.844-0.74 0.419-0.093 1.257-0.831 1.927-1.109 0.67-0.277 1.591-0.462 2.261-1.109 0.67-0.646 1.425-1.109 1.927-1.849 0.503-0.739 1.089-1.571 1.592-2.22 0.503-0.646 1.339-1.294 1.592-1.663 0.252-0.37 0.252 0.555 0.587 0.555 0.334 0 0.753-0.277 1.172-0.647s1.173-1.108 1.257-1.479c0.084-0.369-0.168-1.108-0.168-1.108s1.005-1.109 1.257-1.295c0.251-0.185 1.257-1.017 1.592-1.201s1.005-1.202 1.005-1.202l-0.251-3.977 0.586-2.772s0.335-3.884-0.335-5.362c-0.67-1.479-1.089-2.219-1.089-2.496s-0.167-0.925-0.084-1.941c0.084-1.017 0.503-1.757 0.503-2.681 0-0.926 0.419-3.422 0.335-3.792-0.083-0.369 5.11-5.824 5.11-5.824s1.926-0.646 1.926-3.604c0-2.959-1.006-8.414-1.255-8.784-0.253-0.369-2.263-6.47-2.263-6.47l-0.671-3.236-0.921-2.959 0.419-0.555s-4.44-11.741-6.534-14.699c-2.094-2.959-6.618-6.473-8.628-7.397-2.011-0.924-4.691-1.663-5.947-1.94-1.257-0.277-2.514-0.556-2.932-0.647-0.42-0.093-3.101-1.018-4.021-1.941-0.923-0.924-1.508-1.018-1.76-1.664s0.334-2.958 0.083-3.882c-0.25-0.925-1.508-4.254-2.093-4.994-0.587-0.739-3.268-5.269-4.189-5.823-0.922-0.556-1.843-1.85-2.597-1.757s-1.173-0.647-2.178-0.647-4.021-0.555-4.775-0.277c-0.753 0.277-0.753 0.186-1.508 0.37-0.754 0.185-3.853 0.924-4.355 1.849s-3.602 6.286-3.937 7.581c-0.336 1.294-1.09 4.808-0.922 6.563 0.167 1.758 0 3.422 0.503 4.9 0.502 1.479 0.837 6.656 1.256 7.396 0.419 0.739 1.088 2.219 1.592 2.959 0.503 0.738 1.592 1.387 1.089 3.144-0.503 1.755-0.084 1.755-0.67 2.402-0.587 0.647-0.503 1.295-0.503 1.295l1.341-0.186 1.089-0.185s0.836-0.646 0.836-1.018c0-0.369 0.756 1.295 0.756 1.295s-0.168 2.127 0.084 3.698c0.251 1.571 0.586 1.941 0.669 2.865 0.084 0.925-0.167 1.295 0.252 2.22s0.335 1.109 0.67 1.85c0.335 0.739 0.503 0.832 0.503 1.849s-0.084 2.403-0.168 2.681-0.251 1.018-0.167 1.479c0.083 0.463 0.251 1.387 0.251 1.387l1.424 0.186s0.754 5.177 0.838 5.916c0.083 0.74 0.503 2.867 0.586 3.236 0.084 0.37 0.419 3.144 0.252 3.421-0.168 0.277-1.089 1.757-1.089 1.757l-1.424 1.202-0.755 0.185-7.287-4.808s-0.168-4.16-0.67-4.993c-0.503-0.832-1.257-0.739-1.509-0.462-0.251 0.278-0.587 1.757-0.587 1.757v1.85l-3.435-2.127-13.903-8.967-4.273-2.682-0.671-1.295-0.753-1.294-0.251-0.832s-1.445 0.277-1.508 0.416-1.131-0.209-1.131-0.209 0.062-1.247-0.44-1.109c-0.503 0.14-0.879 0.832-0.879 0.832l-1.006-0.415s-0.126-1.109-0.691-0.972c-0.564 0.14-0.879 0.625-0.879 0.625l-1.256-0.555s-0.19-1.317-0.566-1.109c-0.377 0.208-0.502 0.832-0.502 0.832l-1.32-0.486s0.126-1.456-0.25-1.178c-0.377 0.277-0.629 0.763-0.629 0.763l-1.383-0.416s-0.439-1.526-0.941-1.109c-0.504 0.416-0.691 0.692-0.691 0.692s-1.57 0.348-1.822 0.902c-0.251 0.555-0.376 1.109-0.251 1.802 0.126 0.694-0.439 1.596 0.503 1.942 0.941 0.347 1.821 0.971 2.324 0.763s1.005-0.485 1.318-0.069c0.314 0.415 1.948 2.912 2.639 3.12 0.691 0.207 4.147 0.832 4.398 0.901 0.252 0.07 3.707 1.387 3.707 1.387l5.089 2.981 5.968 4.368 8.922 6.38-0.691 0.97s-0.691 0.902-0.313 1.388c0.376 0.485 0.942 0.901 1.066 1.179 0.128 0.277 0.818 1.109 0.818 1.109s0.377 1.04 0.628 1.387 0.629 1.041 0.754 0.832c0.126-0.208 0.126 1.248 0.062 1.595-0.062 0.347-0.439 1.317 0.063 1.525 0.503 0.207 1.508 0.139 1.695 0.07 0.189-0.07 2.514-0.556 2.514-0.556s3.268 2.288 3.707 2.288c0.438 0 4.209-0.208 4.209-0.208l4.523 3.051 0.314 2.496s-0.378 1.388-1.696 1.388h-3.329c-0.378 0-2.766-0.763-3.33-0.832-0.566-0.071-1.76 0-2.074 0.484-0.314 0.485-0.628 0.901-0.628 1.664s0.189 1.387 0.313 1.803c0.127 0.417 0.629 2.219 0.629 2.219s1.131 1.457 1.634 1.872c0.503 0.417 7.602 2.497 8.606 2.843 1.006 0.349 1.132 0.349 1.006 0.349-0.125 0-1.759 2.148-1.759 2.148l-11.309 9.915s-1.571 1.318-1.634 1.525c-0.062 0.208-1.131 1.595-1.319 2.497-0.188 0.901-0.629 1.803-0.565 2.772 0.063 0.971 0.586 8.252 0.754 9.176 0.167 0.925 0.67 2.496 0.921 3.513 0.252 1.017 1.09 2.959 1.257 4.254 0.167 1.294 0.754 5.27 0.838 5.546 0.084 0.278 0.335 1.295 0.419 2.312s0.753 5.824 0.921 6.471 0.503 3.698 0.419 4.068-0.084 1.851-0.167 2.589l-0.084 0.739 0.419 1.664 26.635-0.559z" fill="#803300"/>
  </g>
  <metadata>
    <rdf:RDF>
      <cc:Work>
        <dc:format>image/svg+xml</dc:format>
        <dc:type rdf:resource="http://purl.org/dc/dcmitype/StillImage"/>
        <cc:license rdf:resource="http://creativecommons.org/licenses/publicdomain/"/>
        <dc:publisher>
          <cc:Agent rdf:about="http://openclipart.org/">
            <dc:title>Openclipart</dc:title>
          </cc:Agent>
        </dc:publisher>
        <dc:title>cheer 2 fans</dc:title>
        <dc:date>2010-08-04T10:31:07</dc:date>
        <dc:description>Separated entry of my collection-set of silhouettes. Check my other clip art.</dc:description>
        <dc:source>http://openclipart.org/detail/77149/cheer-2-fans-by-shokunin</dc:source>
        <dc:creator>
          <cc:Agent>
            <dc:title>shokunin</dc:title>
          </cc:Agent>
        </dc:creator>
        <dc:subject>
          <rdf:Bag>
            <rdf:li>book</rdf:li>
            <rdf:li>books</rdf:li>
            <rdf:li>boy</rdf:li>
            <rdf:li>clip art</rdf:li>
            <rdf:li>clipart</rdf:li>
            <rdf:li>concert</rdf:li>
            <rdf:li>cool laptop</rdf:li>
            <rdf:li>dude</rdf:li>
            <rdf:li>girl</rdf:li>
            <rdf:li>hip hop</rdf:li>
            <rdf:li>man</rdf:li>
            <rdf:li>mic</rdf:li>
            <rdf:li>mike</rdf:li>
            <rdf:li>party girl</rdf:li>
            <rdf:li>party goer</rdf:li>
            <rdf:li>rap</rdf:li>
            <rdf:li>rapper</rdf:li>
            <rdf:li>rock crowd</rdf:li>
            <rdf:li>rock star</rdf:li>
            <rdf:li>shopper</rdf:li>
            <rdf:li>shopping</rdf:li>
            <rdf:li>silhouettes</rdf:li>
            <rdf:li>stand</rdf:li>
            <rdf:li>student</rdf:li>
            <rdf:li>student girl</rdf:li>
            <rdf:li>suit</rdf:li>
            <rdf:li>yo</rdf:li>
          </rdf:Bag>
        </dc:subject>
      </cc:Work>
      <cc:License rdf:about="http://creativecommons.org/licenses/publicdomain/">
        <cc:permits rdf:resource="http://creativecommons.org/ns#Reproduction"/>
        <cc:permits rdf:resource="http://creativecommons.org/ns#Distribution"/>
        <cc:permits rdf:resource="http://creativecommons.org/ns#DerivativeWorks"/>
      </cc:License>
    </rdf:RDF>
  </metadata>
</svg>
