<?xml version="1.0" encoding="UTF-8" standalone="no"?>
<!-- Created with Inkscape (http://www.inkscape.org/) -->

<svg
   version="1.1"
   id="svg1"
   width="500"
   height="500"
   viewBox="0 0 500 500"
   sodipodi:docname="logo-escrita.svg"
   inkscape:version="1.4 (86a8ad7, 2024-10-11)"
   xmlns:inkscape="http://www.inkscape.org/namespaces/inkscape"
   xmlns:sodipodi="http://sodipodi.sourceforge.net/DTD/sodipodi-0.dtd"
   xmlns="http://www.w3.org/2000/svg"
   xmlns:svg="http://www.w3.org/2000/svg">
  <defs
     id="defs1" />
  <sodipodi:namedview
     id="namedview1"
     pagecolor="#ffffff"
     bordercolor="#000000"
     borderopacity="0.25"
     inkscape:showpageshadow="2"
     inkscape:pageopacity="0.0"
     inkscape:pagecheckerboard="0"
     inkscape:deskcolor="#d1d1d1"
     inkscape:zoom="1.1412703"
     inkscape:cx="262.86498"
     inkscape:cy="281.70363"
     inkscape:window-width="1920"
     inkscape:window-height="1009"
     inkscape:window-x="1352"
     inkscape:window-y="-8"
     inkscape:window-maximized="1"
     inkscape:current-layer="g1"
     showgrid="false" />
  <g
     inkscape:groupmode="layer"
     inkscape:label="Image"
     id="g1">
    <g
       id="g2"
       transform="translate(-10.514599,-22.781636)">
      <path
         style="fill:#d5c8c5"
         d="m 252.29075,280.12444 c 0,-1.375 0.22697,-1.9375 0.50439,-1.25 0.27741,0.6875 0.27741,1.8125 0,2.5 -0.27742,0.6875 -0.50439,0.125 -0.50439,-1.25 z M 121.2118,276.54111 c 0.048,-1.16494 0.28494,-1.4019 0.60417,-0.60417 0.28887,0.72188 0.25334,1.58438 -0.0789,1.91667 -0.33229,0.33229 -0.56864,-0.25833 -0.52522,-1.3125 z m 115.07895,-0.41667 c 0,-1.375 0.22697,-1.9375 0.50439,-1.25 0.27741,0.6875 0.27741,1.8125 0,2.5 -0.27742,0.6875 -0.50439,0.125 -0.50439,-1.25 z m 76.24709,-2.25 -1.90499,-2.25 2.25,1.90499 c 1.2375,1.04775 2.25,2.06025 2.25,2.25 0,0.80026 -0.80479,0.20946 -2.59501,-1.90499 z M 298.1304,256.42206 c -0.27365,-10.01132 -0.14908,-17.85285 0.27682,-17.42564 0.4259,0.42722 0.6498,8.6183 0.49755,18.20239 l -0.27682,17.42563 z m -138.63231,7.20238 c 0.003,-5.5 0.17053,-7.62241 0.37317,-4.71647 0.20264,2.90593 0.20051,7.40593 -0.005,10 -0.20524,2.59406 -0.37104,0.21647 -0.36843,-5.28353 z m 8.05953,-11.5 c 0,-11.825 0.14465,-16.6625 0.32145,-10.75 0.1768,5.9125 0.1768,15.5875 0,21.5 -0.1768,5.9125 -0.32145,1.075 -0.32145,-10.75 z m 23.44768,18.25 c -1.24387,-1.58605 -1.2085,-1.62142 0.37755,-0.37755 0.9625,0.75484 1.75,1.54234 1.75,1.75 0,0.82303 -0.82118,0.2933 -2.12755,-1.37245 z m 170.62755,-17.25 c 2.14825,-2.2 4.1309,-4 4.4059,-4 0.275,0 -1.25765,1.8 -3.4059,4 -2.14824,2.2 -4.13089,4 -4.40589,4 -0.275,0 1.25765,-1.8 3.40589,-4 z m -169.75,1.2678 c 2.3375,-0.21053 6.1625,-0.21053 8.5,0 2.3375,0.21053 0.425,0.38279 -4.25,0.38279 -4.675,0 -6.5875,-0.17226 -4.25,-0.38279 z m -32.3895,-14.2678 c 0,-5.225 0.16855,-7.3625 0.37454,-4.75 0.206,2.6125 0.206,6.8875 0,9.5 -0.20599,2.6125 -0.37454,0.475 -0.37454,-4.75 z m -32.57697,-14.7384 c 2.90593,-0.20264 7.40593,-0.20051 10,0.005 2.59406,0.20525 0.21647,0.37105 -5.28353,0.36844 -5.5,-0.003 -7.62241,-0.17053 -4.71647,-0.37317 z m 32,0 c 2.90593,-0.20264 7.40593,-0.20051 10,0.005 2.59406,0.20525 0.21647,0.37105 -5.28353,0.36844 -5.5,-0.003 -7.62241,-0.17053 -4.71647,-0.37317 z"
         id="path8" />
      <path
         style="fill:#c8b6b2"
         d="m 252.40522,286.12444 c 0,-2.475 0.19501,-3.4875 0.43337,-2.25 0.23835,1.2375 0.23835,3.2625 0,4.5 -0.23836,1.2375 -0.43337,0.225 -0.43337,-2.25 z m 132.80658,-9.58333 c 0.048,-1.16494 0.28494,-1.4019 0.60417,-0.60417 0.28887,0.72188 0.25334,1.58438 -0.079,1.91667 -0.33229,0.33229 -0.56864,-0.25833 -0.52522,-1.3125 z M 230.5696,248.12444 c 0,-14.575 0.13979,-20.5375 0.31065,-13.25 0.17086,7.2875 0.17086,19.2125 0,26.5 -0.17086,7.2875 -0.31065,1.325 -0.31065,-13.25 z m 21.95498,12 c 0,-7.425 0.15742,-10.4625 0.34982,-6.75 0.19241,3.7125 0.19241,9.7875 0,13.5 -0.1924,3.7125 -0.34982,0.675 -0.34982,-6.75 z m -73.31278,0.41667 c 0.048,-1.16494 0.28494,-1.4019 0.60417,-0.60417 0.28887,0.72188 0.25334,1.58438 -0.0789,1.91667 -0.33229,0.33229 -0.56864,-0.25833 -0.52522,-1.3125 z m -38.32895,-7.15706 c 3.4375,-0.19527 9.0625,-0.19527 12.5,0 3.4375,0.19527 0.625,0.35504 -6.25,0.35504 -6.875,0 -9.6875,-0.15977 -6.25,-0.35504 z m 227.25,-6.75961 c 1.29175,-1.375 2.57363,-2.5 2.84863,-2.5 0.275,0 -0.55688,1.125 -1.84863,2.5 -1.29174,1.375 -2.57362,2.5 -2.84862,2.5 -0.275,0 0.55688,-1.125 1.84862,-2.5 z m -82.65492,-4.04312 c -0.32568,-0.84872 -0.36871,-1.76657 -0.0956,-2.03967 0.2731,-0.27309 0.73656,0.42132 1.02992,1.54313 0.62315,2.38293 -0.0692,2.75089 -0.9343,0.49654 z"
         id="path7" />
      <path
         style="fill:#b09690"
         d="m 127.56037,252.12444 c 0,-12.375 0.14354,-17.4375 0.31899,-11.25 0.17545,6.1875 0.17545,16.3125 0,22.5 -0.17545,6.1875 -0.31899,1.125 -0.31899,-11.25 z m 221.00374,-2.5 c 6.5e-4,-13.2 0.14295,-18.46169 0.31621,-11.69265 0.17325,6.76905 0.17272,17.56905 -10e-4,24 -0.17392,6.43096 -0.31568,0.89265 -0.31502,-12.30735 z m -157.93126,8.84299 c 9.50287,-0.73078 21.27853,-0.7833 20.84883,-0.093 -0.25677,0.4125 -5.9528,0.67139 -12.65784,0.5753 -6.70504,-0.0961 -10.39099,-0.31313 -8.19099,-0.48231 z m 179.5,-7.65589 c 0,-0.1721 1.4625,-1.6346 3.25,-3.25 l 3.25,-2.9371 -2.93709,3.25 c -2.73778,3.02946 -3.56291,3.70966 -3.56291,2.9371 z m -58,-6.06465 c 0,-0.20766 0.7875,-0.99516 1.75,-1.75 1.58606,-1.24387 1.62143,-1.2085 0.37756,0.37755 -1.30637,1.66575 -2.12756,2.19548 -2.12756,1.37245 z m 54.07895,-4.20578 c 0.048,-1.16494 0.28494,-1.4019 0.60417,-0.60417 0.28887,0.72188 0.25334,1.58438 -0.079,1.91667 -0.33229,0.33229 -0.56864,-0.25833 -0.52522,-1.3125 z m 17,0 c 0.048,-1.16494 0.28494,-1.4019 0.60417,-0.60417 0.28887,0.72188 0.25334,1.58438 -0.079,1.91667 -0.33229,0.33229 -0.56864,-0.25833 -0.52522,-1.3125 z"
         id="path6" />
      <path
         style="fill:#a1827b"
         d="m 259.2118,293.54111 c 0.048,-1.16494 0.28494,-1.4019 0.60417,-0.60417 0.28887,0.72188 0.25334,1.58438 -0.079,1.91667 -0.33229,0.33229 -0.56864,-0.25833 -0.52522,-1.3125 z m -42,-17 c 0.048,-1.16494 0.28494,-1.4019 0.60417,-0.60417 0.28887,0.72188 0.25334,1.58438 -0.0789,1.91667 -0.33229,0.33229 -0.56864,-0.25833 -0.52522,-1.3125 z m 143,0 c 0.048,-1.16494 0.28494,-1.4019 0.60417,-0.60417 0.28887,0.72188 0.25334,1.58438 -0.079,1.91667 -0.33229,0.33229 -0.56864,-0.25833 -0.52522,-1.3125 z m -4.82676,-5.91667 c 0.0111,-2.2 0.21588,-2.98225 0.45508,-1.73834 0.23919,1.24392 0.23011,3.04392 -0.0202,4 -0.25029,0.95609 -0.44599,-0.0617 -0.43489,-2.26166 z m -84.05724,-12 c 0.0204,-1.65 0.2445,-2.20393 0.49805,-1.23096 0.25354,0.97296 0.23686,2.32296 -0.0371,3 -0.27392,0.67703 -0.48137,-0.11904 -0.46099,-1.76904 z m 43.96295,-1.5 c 0,-1.375 0.22697,-1.9375 0.50439,-1.25 0.27741,0.6875 0.27741,1.8125 0,2.5 -0.27742,0.6875 -0.50439,0.125 -0.50439,-1.25 z m 40.25719,-17 c 0,-10.175 0.14849,-14.3375 0.32998,-9.25 0.18149,5.0875 0.18149,13.4125 0,18.5 -0.18149,5.0875 -0.32998,0.925 -0.32998,-9.25 z m -104.33614,1.41667 c 0.048,-1.16494 0.28494,-1.4019 0.60417,-0.60417 0.28887,0.72188 0.25334,1.58438 -0.0789,1.91667 -0.33229,0.33229 -0.56864,-0.25833 -0.52522,-1.3125 z"
         id="path5" />
      <path
         style="fill:#906b63"
         d="m 245.56292,268.12444 c 0,-12.925 0.14252,-18.2125 0.3167,-11.75 0.17419,6.4625 0.17419,17.0375 0,23.5 -0.17418,6.4625 -0.3167,1.175 -0.3167,-11.75 z m -73.35112,8.41667 c 0.048,-1.16494 0.28494,-1.4019 0.60417,-0.60417 0.28887,0.72188 0.25334,1.58438 -0.0789,1.91667 -0.33229,0.33229 -0.56864,-0.25833 -0.52522,-1.3125 z m 113,0 c 0.048,-1.16494 0.28494,-1.4019 0.60417,-0.60417 0.28887,0.72188 0.25334,1.58438 -0.079,1.91667 -0.33229,0.33229 -0.56864,-0.25833 -0.52522,-1.3125 z m 18,0 c 0.048,-1.16494 0.28494,-1.4019 0.60417,-0.60417 0.28887,0.72188 0.25334,1.58438 -0.079,1.91667 -0.33229,0.33229 -0.56864,-0.25833 -0.52522,-1.3125 z m 65,0 c 0.048,-1.16494 0.28494,-1.4019 0.60417,-0.60417 0.28887,0.72188 0.25334,1.58438 -0.079,1.91667 -0.33229,0.33229 -0.56864,-0.25833 -0.52522,-1.3125 z m -10.07895,-14.91667 c 1.86579,-1.925 3.61734,-3.5 3.89234,-3.5 0.275,0 -1.02655,1.575 -2.89234,3.5 -1.86578,1.925 -3.61733,3.5 -3.89233,3.5 -0.275,0 1.02655,-1.575 2.89233,-3.5 z m -146.8421,-8.5 c 0,-1.375 0.22697,-1.9375 0.50439,-1.25 0.27741,0.6875 0.27741,1.8125 0,2.5 -0.27742,0.6875 -0.50439,0.125 -0.50439,-1.25 z m 122.5921,-2.66228 c 0.6875,-0.27741 1.8125,-0.27741 2.5,0 0.6875,0.27742 0.125,0.50439 -1.25,0.50439 -1.375,0 -1.9375,-0.22697 -1.25,-0.50439 z m 3.48201,-4.33772 c 0,-1.925 0.20579,-2.7125 0.45732,-1.75 0.25153,0.9625 0.25153,2.5375 0,3.5 -0.25153,0.9625 -0.45732,0.175 -0.45732,-1.75 z m -11.41951,-4.68311 c 0.72188,-0.28887 1.58438,-0.25334 1.91667,0.079 0.33229,0.33229 -0.25833,0.56864 -1.3125,0.52522 -1.16494,-0.048 -1.4019,-0.28494 -0.60417,-0.60417 z M 172.2118,227.54111 c 0.048,-1.16494 0.28494,-1.4019 0.60417,-0.60417 0.28887,0.72188 0.25334,1.58438 -0.0789,1.91667 -0.33229,0.33229 -0.56864,-0.25833 -0.52522,-1.3125 z"
         id="path4" />
      <path
         style="fill:#7a4e44"
         d="m 240.2118,293.54111 c 0.048,-1.16494 0.28494,-1.4019 0.60417,-0.60417 0.28887,0.72188 0.25334,1.58438 -0.0789,1.91667 -0.33229,0.33229 -0.56864,-0.25833 -0.52522,-1.3125 z m 18.73355,-18.09978 c 0.72188,-0.28887 1.58438,-0.25334 1.91667,0.079 0.33229,0.33229 -0.25833,0.56864 -1.3125,0.52522 -1.16494,-0.048 -1.4019,-0.28494 -0.60417,-0.60417 z m 54.05995,-2.06689 c -1.24387,-1.58605 -1.2085,-1.62142 0.37755,-0.37755 0.9625,0.75484 1.75,1.54234 1.75,1.75 0,0.82303 -0.82118,0.2933 -2.12755,-1.37245 z m -178.50248,-9.25 c 0,-5.775 0.16527,-8.1375 0.36728,-5.25 0.202,2.8875 0.202,7.6125 0,10.5 -0.20201,2.8875 -0.36728,0.525 -0.36728,-5.25 z m 89.06359,-14.5 c -6.1e-4,-13.75 0.14023,-19.51369 0.31298,-12.80821 0.17275,6.70548 0.17325,17.95548 0.001,25 -0.17214,7.04452 -0.31348,1.55821 -0.31409,-12.19179 z m -32.56111,21.75 c -1.24387,-1.58605 -1.2085,-1.62142 0.37755,-0.37755 0.9625,0.75484 1.75,1.54234 1.75,1.75 0,0.82303 -0.82118,0.2933 -2.12755,-1.37245 z m 170.62755,-17.25 c 2.14825,-2.2 4.1309,-4 4.4059,-4 0.275,0 -1.25765,1.8 -3.4059,4 -2.14824,2.2 -4.13089,4 -4.40589,4 -0.275,0 1.25765,-1.8 3.40589,-4 z M 134.56004,248.7953 c -0.28052,-0.73103 -0.35893,-5.34353 -0.17425,-10.25 l 0.33579,-8.92086 0.20564,9.72013 0.20563,9.72012 12.75,0.31255 12.75,0.31254 -12.78138,0.21733 c -9.86436,0.16773 -12.89779,-0.086 -13.29143,-1.11181 z m 105.65176,-7.25419 c 0.048,-1.16494 0.28494,-1.4019 0.60417,-0.60417 0.28887,0.72188 0.25334,1.58438 -0.0789,1.91667 -0.33229,0.33229 -0.56864,-0.25833 -0.52522,-1.3125 z m 19.73355,0.90022 c 0.72188,-0.28887 1.58438,-0.25334 1.91667,0.079 0.33229,0.33229 -0.25833,0.56864 -1.3125,0.52522 -1.16494,-0.048 -1.4019,-0.28494 -0.60417,-0.60417 z m 77.26645,-0.90022 c 0.048,-1.16494 0.28494,-1.4019 0.60417,-0.60417 0.28887,0.72188 0.25334,1.58438 -0.079,1.91667 -0.33229,0.33229 -0.56864,-0.25833 -0.52522,-1.3125 z"
         id="path3" />
      <path
         style="fill:#76483e"
         d="m 241.13285,293.73285 c 0,-0.76537 1.125,-1.67395 2.5,-2.01905 l 2.5,-0.62746 v -23.4619 -23.46189 l -2.5,-0.62746 c -2.80471,-0.70394 -3.32961,-2.87832 -0.91821,-3.80366 0.86999,-0.33384 3.11999,-0.60699 5,-0.60699 2.98457,0 3.41821,0.31896 3.41821,2.51419 v 2.51419 l 3.93423,-2.60355 c 2.68619,-1.77763 5.3475,-2.62491 8.38929,-2.6709 9.47394,-0.14322 15.10785,6.66565 15.06258,18.20389 -0.0529,13.47613 -8.0124,21.58174 -20.49917,20.8754 l -5.89057,-0.33322 0.002,6.70469 0.002,6.70469 3.5,0.6566 c 2.00458,0.37606 3.5,1.24995 3.5,2.04532 0,1.08207 -1.98722,1.3887 -9,1.3887 -7.02172,0 -9,-0.30588 -9,-1.39159 z m 26.25556,-21.47797 c 5.7017,-5.54538 6.19097,-20.36075 0.86911,-26.31694 -3.27528,-3.66567 -9.16081,-4.33028 -13.45142,-1.51897 l -2.67325,1.75158 v 13.94836 13.94835 l 3.25,0.94859 c 4.57305,1.33476 8.79199,0.36451 12.00556,-2.76097 z m -145.25556,4.49456 c 0,-0.75625 1.35,-1.645 3,-1.975 l 3,-0.6 v -22.05 -22.05 l -3,-0.6 c -1.65,-0.33 -3,-1.21875 -3,-1.975 0,-1.07017 2.10607,-1.375 9.5,-1.375 7.77778,0 9.5,0.27193 9.5,1.5 0,0.88436 -0.92347,1.50629 -2.25,1.51532 -4.41987,0.0301 -4.84729,1.07216 -4.53972,11.06826 l 0.28972,9.41642 12.78532,0.28015 12.78532,0.28014 -0.28532,-10.28014 -0.28532,-10.28015 -2.75,-0.31642 c -1.574,-0.18111 -2.75,-0.92947 -2.75,-1.75 0,-1.13858 1.852,-1.43358 9,-1.43358 7.13885,0 9,0.29581 9,1.43045 0,0.78675 -1.0125,1.57425 -2.25,1.75 l -2.25,0.31955 v 22.5 22.5 l 2.25,0.31956 c 1.2375,0.17575 2.25,0.96325 2.25,1.75 0,1.13464 -1.86115,1.43044 -9,1.43044 -6.96969,0 -9,-0.31018 -9,-1.375 0,-0.75625 1.35,-1.645 3,-1.975 l 3,-0.6 v -10.55487 -10.55488 l -12.75,0.27988 -12.75,0.27987 -0.28823,9.91736 c -0.30592,10.52619 0.0907,11.53706 4.53823,11.56733 1.32653,0.009 2.25,0.63096 2.25,1.51531 0,1.22808 -1.72222,1.5 -9.5,1.5 -7.39393,0 -9.5,-0.30482 -9.5,-1.375 z m 65.95195,-0.87839 c -4.78423,-3.2241 -7.10841,-7.82667 -7.70493,-15.25812 -1.00187,-12.48117 6.52435,-21.71925 17.69458,-21.71925 2.61728,0 5.75021,0.53064 6.96206,1.1792 3.69205,1.97593 6.08848,7.01123 6.09261,12.80156 l 0.004,5.25 h -12 -12 v 3.03984 c 0,3.78941 3.36586,10.55041 5.93753,11.92673 2.82141,1.50997 11.1222,1.25075 14.38125,-0.4491 2.57998,-1.34567 2.79066,-1.32424 2.48692,0.25294 -0.96023,4.98609 -15.86016,7.01527 -21.85375,2.9762 z m 16.67085,-25.48196 c -0.82652,-6.03015 -3.39039,-8.69596 -8.23146,-8.55873 -4.85327,0.13757 -8.36304,3.66425 -9.0977,9.1415 l -0.55697,4.15258 h 9.26759 9.26759 z m 13.3772,26.36035 c 0,-0.75625 1.35,-1.645 3,-1.975 l 3,-0.6 v -24.45857 -24.45858 l -2.67288,-0.31642 c -4.71181,-0.5578 -3.70208,-2.50902 1.66694,-3.22125 2.78928,-0.37001 5.50668,-0.40373 6.03868,-0.0749 0.58356,0.36066 0.96726,11.08672 0.96726,27.03878 v 26.44098 h 3 c 2,0 3,0.5 3,1.5 0,1.22223 -1.66666,1.5 -9,1.5 -6.96969,0 -9,-0.31018 -9,-1.375 z m 68,-0.0554 c 0,-0.78675 1.0125,-1.57425 2.25,-1.75 2.2067,-0.3134 2.25532,-0.6126 2.52591,-15.544 l 0.27591,-15.22445 -2.52591,-0.63396 c -5.85064,-1.46842 -0.0724,-5.1965 6.5931,-4.25386 l 2.38099,0.33671 0.27308,17.75 0.27307,17.75 h 2.47693 c 1.53504,0 2.47692,0.5704 2.47692,1.5 0,1.21569 -1.61111,1.5 -8.5,1.5 -6.7052,0 -8.5,-0.30204 -8.5,-1.43044 z m 30.92168,-0.84335 c -8.76666,-5.90785 -11.13714,-17.28953 -5.80911,-27.89199 3.55415,-7.07255 12.15187,-10.61424 21.10545,-8.69404 l 4.78198,1.02555 v 4.91714 c 0,4.17512 -0.28854,4.91713 -1.9121,4.91713 -1.44909,0 -2.07452,-0.96136 -2.58287,-3.97023 -0.5942,-3.51705 -1.0511,-4.04158 -4.00284,-4.59533 -6.87721,-1.29017 -12.26874,3.88003 -13.16481,12.6244 -0.71506,6.97791 1.06399,13.49638 4.66679,17.09918 2.30646,2.30645 3.71683,2.84198 7.48465,2.84198 2.55347,0 5.5614,-0.49168 6.68429,-1.09264 1.37671,-0.73679 2.37107,-0.76318 3.05323,-0.081 0.68216,0.68216 -0.31686,1.68936 -3.06752,3.09264 -5.60115,2.8575 -12.83082,2.77664 -17.23714,-0.19277 z m 27.07832,0.84335 c 0,-0.78675 1.0125,-1.57425 2.25,-1.75 l 2.25,-0.31956 0.26747,-24.75 0.26747,-24.75 h -2.45845 c -2.18147,0 -4.36083,-1.57095 -3.42662,-2.47002 0.19257,-0.18533 2.93763,-0.65724 6.10013,-1.04869 l 5.75,-0.71173 v 19.61522 c 0,11.18316 0.393,19.61522 0.91422,19.61522 1.3722,0 16.0114,-16.31134 15.45181,-17.21677 -0.26623,-0.43077 -1.3575,-0.78323 -2.42504,-0.78323 -1.06754,0 -1.94099,-0.675 -1.94099,-1.5 0,-1.20833 1.55556,-1.5 8,-1.5 6.12122,0 8,0.32292 8,1.375 0,0.75625 -1.2375,1.62867 -2.75,1.93872 -1.5125,0.31004 -5.09565,2.95379 -7.96255,5.875 l -5.21256,5.31128 6.94201,10.75 c 5.05591,7.8293 7.49098,10.75 8.96256,10.75 1.12937,0 2.02054,0.66159 2.02054,1.5 0,1.20834 -1.55555,1.5 -8,1.5 -6.14467,0 -8,-0.32082 -8,-1.38336 0,-0.76086 0.95849,-1.63402 2.12997,-1.94037 2.114,-0.55282 2.10899,-0.59308 -0.6674,-5.36663 -1.53856,-2.6453 -3.8862,-6.55022 -5.21699,-8.67761 l -2.41961,-3.86798 -3.95672,3.86364 c -3.69678,3.6098 -3.93743,4.1924 -3.66299,8.86797 0.25368,4.32171 0.60066,5.04793 2.54374,5.3239 1.2375,0.17575 2.25,0.96325 2.25,1.75 0,1.12139 -1.72843,1.43044 -8,1.43044 -6.27156,0 -8,-0.30905 -8,-1.43044 z m -53.28594,-46.18883 c -1.22615,-1.22616 -0.78154,-5.07983 0.7309,-6.33504 0.79473,-0.65957 2.48223,-1.05217 3.75,-0.87245 1.90543,0.27012 2.30504,0.93355 2.30504,3.82676 0,3.16613 -0.2896,3.52837 -3.03594,3.7974 -1.66976,0.16356 -3.35726,-0.0239 -3.75,-0.41667 z"
         id="path2" />
    </g>
  </g>
</svg>
