<?xml version="1.0" encoding="UTF-8" standalone="no"?>
<!-- Created with Inkscape (http://www.inkscape.org/) -->

<svg
   width="210mm"
   height="297mm"
   viewBox="0 0 210 297"
   version="1.1"
   id="svg1"
   xml:space="preserve"
   inkscape:version="1.4 (86a8ad7, 2024-10-11)"
   sodipodi:docname="logo-palheta.svg"
   xmlns:inkscape="http://www.inkscape.org/namespaces/inkscape"
   xmlns:sodipodi="http://sodipodi.sourceforge.net/DTD/sodipodi-0.dtd"
   xmlns="http://www.w3.org/2000/svg"
   xmlns:svg="http://www.w3.org/2000/svg"><sodipodi:namedview
     id="namedview1"
     pagecolor="#ffffff"
     bordercolor="#000000"
     borderopacity="0.25"
     inkscape:showpageshadow="2"
     inkscape:pageopacity="0.0"
     inkscape:pagecheckerboard="0"
     inkscape:deskcolor="#d1d1d1"
     inkscape:document-units="mm"
     inkscape:zoom="0.71891835"
     inkscape:cx="396.42889"
     inkscape:cy="561.25984"
     inkscape:window-width="1920"
     inkscape:window-height="1009"
     inkscape:window-x="1352"
     inkscape:window-y="-8"
     inkscape:window-maximized="1"
     inkscape:current-layer="layer1"
     showgrid="false" /><defs
     id="defs1" /><g
     inkscape:label="Camada 1"
     inkscape:groupmode="layer"
     id="layer1"><g
       id="g1"
       transform="matrix(1.6845324,0,0,1.7973669,-72.135993,-98.149951)"><path
         style="fill:#e7c5b8"
         d="m 103.96696,169.93148 c -6.500895,-3.9489 -23.647783,-35.46106 -27.38822,-50.33345 -1.203181,-4.78398 -0.979678,-9.7019 0.569085,-12.52203 4.216851,-7.678415 16.787997,-12.251375 31.939825,-11.618632 8.51814,0.355719 14.46186,1.769394 20.59754,4.898992 3.55987,1.81576 7.14056,5.16577 8.52209,7.97307 0.82585,1.67814 0.92374,2.35193 0.90253,6.21166 -0.0216,3.93029 -0.13867,4.64107 -1.2701,7.71126 -6.03036,16.36367 -27.29108,48.39176 -32.11571,48.38053 -0.33257,-7.8e-4 -1.12324,-0.3164 -1.75704,-0.7014 z m 2.50713,-28.40367 c -0.56738,-0.56517 -1.2924,0.1996 -1.05612,1.11401 0.14863,0.57518 0.18833,0.54895 0.22441,-0.14825 0.0627,-1.2109 0.78962,-1.05014 0.85118,0.18823 0.0472,0.95026 0.0654,0.96215 0.22097,0.14482 0.0932,-0.48976 -0.015,-1.07422 -0.24044,-1.29881 z m -3.55084,-0.16363 c -0.0951,-0.36235 -0.17284,-0.0659 -0.17284,0.65881 0,0.7247 0.0778,1.02116 0.17284,0.65881 0.0951,-0.36234 0.0951,-0.95527 0,-1.31762 z m 4.73503,0.21381 c -0.23664,-0.23571 -0.28932,0.0118 -0.1487,0.69881 0.16127,0.78792 0.25631,0.88259 0.36645,0.36502 0.0818,-0.38434 -0.0162,-0.86306 -0.21775,-1.06383 z m 3.40143,0 c -0.23664,-0.23571 -0.28932,0.0118 -0.1487,0.69881 0.16127,0.78792 0.25631,0.88259 0.36645,0.36502 0.0818,-0.38434 -0.0162,-0.86306 -0.21775,-1.06383 z m -1.22159,-0.0874 c -0.24475,-0.2438 -0.50031,-0.2438 -0.74507,0 -0.24476,0.24381 -0.11698,0.37109 0.37254,0.37109 0.48952,0 0.61729,-0.12728 0.37253,-0.37109 z m -10.954755,-3.23221 c 0,-0.41411 0.170071,-0.75293 0.377936,-0.75293 0.207865,0 0.377937,0.33882 0.377937,0.75293 0,0.41411 0.170071,0.75293 0.377932,0.75293 0.20787,0 0.37794,-0.93175 0.37794,-2.07056 0,-1.1388 -0.17007,-2.07055 -0.37794,-2.07055 -0.207861,0 -0.377932,0.33882 -0.377932,0.75293 0,0.41411 -0.170072,0.75293 -0.377937,0.75293 -0.207865,0 -0.377936,-0.33882 -0.377936,-0.75293 0,-0.41411 -0.170072,-0.75293 -0.377937,-0.75293 -0.207865,0 -0.377936,0.93175 -0.377936,2.07055 0,1.13881 0.170071,2.07056 0.377936,2.07056 0.207865,0 0.377937,-0.33882 0.377937,-0.75293 z m 4.913175,0.40783 c 0,-0.1898 -0.21259,-0.43101 -0.47242,-0.53603 -0.36037,-0.14566 -0.34372,-0.28023 0.0702,-0.56738 0.47151,-0.32711 0.47151,-0.4622 0,-1.03104 -0.41804,-0.50433 -0.43415,-0.69097 -0.0702,-0.81299 0.82648,-0.27709 0.50832,-0.84857 -0.47242,-0.84857 -0.89331,0 -0.94484,0.11294 -0.94484,2.07055 0,1.95762 0.0515,2.07056 0.94484,2.07056 0.51966,0 0.94484,-0.1553 0.94484,-0.3451 z m 3.94366,-0.35226 c -0.0675,-0.34115 -0.22475,-1.25555 -0.34956,-2.03201 -0.16674,-1.03732 -0.41116,-1.41174 -0.92159,-1.41174 -0.75015,0 -1.14722,0.97687 -1.1556,2.84299 -0.005,1.04821 0.10677,1.15206 1.27211,1.18496 0.99458,0.0281 1.25013,-0.10122 1.15464,-0.5842 z m 3.61507,-0.19675 c 0,-0.49175 0.10629,-1.4235 0.23621,-2.07055 0.18703,-0.93151 0.10834,-1.17645 -0.37794,-1.17645 -0.43393,0 -0.62414,0.35902 -0.64823,1.22351 l -0.0341,1.22351 -0.35466,-1.22351 c -0.71498,-2.46655 -1.41184,-1.04362 -0.85271,1.74115 0.18499,0.92134 0.43085,1.17645 1.13381,1.17645 0.69288,0 0.8976,-0.20392 0.8976,-0.89411 z m 3.34292,-1.04458 c 0.45832,-1.9778 0.30236,-2.8104 -0.33998,-1.81505 -0.31455,0.48741 -0.40022,0.48741 -0.71477,0 -0.19656,-0.30459 -0.45455,-0.45701 -0.57331,-0.33872 -0.27294,0.27188 0.59592,4.09246 0.9307,4.09246 0.13646,0 0.45028,-0.87241 0.69736,-1.93869 z"
         id="path7" /><path
         style="fill:#e1b8a8"
         d="m 104.34578,169.93202 c -6.444348,-3.91457 -22.241114,-32.237 -27.219639,-48.8028 -0.801244,-2.6661 -1.027807,-4.23061 -1.063093,-7.34106 -0.04047,-3.56762 0.05541,-4.16601 0.983776,-6.13974 3.528376,-7.50141 14.612296,-12.039449 29.395276,-12.035166 6.93284,0.002 11.62882,0.625197 16.68814,2.214627 11.1356,3.498339 16.74289,9.650169 16.06603,17.626209 -0.28844,3.39896 -1.33819,6.80424 -3.72239,12.07502 -7.04493,15.57434 -23.40794,39.83828 -28.70658,42.56764 -1.27477,0.65664 -1.04343,0.67238 -2.42152,-0.16473 z m -0.92718,-27.90903 c 0,-1.29958 -0.49522,-1.70761 -1.13726,-0.93701 -0.32421,0.38913 -0.33731,0.56055 -0.0428,0.56055 0.23331,0 0.42421,0.43352 0.42421,0.96338 0,0.54638 0.16359,0.86267 0.37794,0.73071 0.20786,-0.12797 0.37793,-0.7209 0.37793,-1.31763 z m 2.26762,0.48941 c 0,-1.10799 0.55813,-0.81627 0.86432,0.45175 0.13741,0.56906 0.19252,0.5001 0.22565,-0.28235 0.0241,-0.5694 0.20262,-1.03527 0.39667,-1.03527 0.19406,0 0.42369,0.46587 0.51028,1.03527 0.14654,0.96359 0.16137,0.95055 0.21407,-0.18823 0.0549,-1.18585 0.0101,-1.22351 -1.45511,-1.22351 -1.42776,0 -1.51175,0.0627 -1.51175,1.1294 0,0.62116 0.17007,1.12939 0.37794,1.12939 0.20786,0 0.37793,-0.45741 0.37793,-1.01645 z m 3.45806,-0.0188 0.0566,-1.03527 0.15745,1.03527 c 0.20285,1.33387 0.86311,1.34827 0.86311,0.0188 0,-1.10799 0.55812,-0.81627 0.86432,0.45175 0.11772,0.48753 0.19726,0.32165 0.22565,-0.47058 0.0424,-1.18373 -0.005,-1.22351 -1.46791,-1.22351 -1.42776,0 -1.51174,0.0627 -1.51174,1.1294 0,1.41585 0.73554,1.50105 0.8125,0.0941 z m -8.37123,-5.36462 v -2.25878 h -1.511749 -1.511746 v 2.00781 c 0,1.10429 0.113381,2.12075 0.251958,2.25878 0.138577,0.13804 0.818862,0.25098 1.511746,0.25098 h 1.259791 z m 3.40143,1.72547 c 0,-0.29333 -0.21259,-0.6046 -0.47242,-0.69171 -0.3739,-0.12535 -0.37008,-0.28193 0.0183,-0.75079 0.35873,-0.43301 0.37529,-0.66349 0.0615,-0.85664 -0.30908,-0.19027 -0.31422,-0.37879 -0.0183,-0.6735 0.69273,-0.69003 0.46291,-1.01161 -0.72294,-1.01161 h -1.13381 v 2.25878 2.25879 h 1.13381 c 0.72623,0 1.13381,-0.19172 1.13381,-0.53332 z m 3.63668,-0.92338 c -0.12482,-0.75173 -0.22881,-1.74795 -0.2311,-2.21383 -0.003,-0.68926 -0.21535,-0.84704 -1.13796,-0.84704 -0.99688,0 -1.13381,0.13072 -1.13381,1.08233 0,0.59529 -0.10422,1.60139 -0.23159,2.23578 -0.22964,1.14369 -0.2181,1.15325 1.3649,1.13149 l 1.59649,-0.022 z m 3.67947,0.045 c 0.37799,-2.27792 0.29153,-3.10583 -0.32433,-3.10583 -0.3118,0 -0.58033,0.21176 -0.59674,0.47058 -0.0239,0.37646 -0.068,0.37646 -0.22046,0 -0.10485,-0.25882 -0.52431,-0.47058 -0.93213,-0.47058 -0.6454,0 -0.71197,0.18297 -0.51364,1.41174 0.47809,2.96198 0.54594,3.10583 1.46485,3.10583 0.73275,0 0.92919,-0.24707 1.12245,-1.41174 z m 3.26607,0.37398 c 0,-0.57077 0.1582,-1.58722 0.35155,-2.25879 l 0.35156,-1.22102 h -1.417 -1.417 l 0.46686,2.16467 c 0.25678,1.19057 0.48112,2.20702 0.49855,2.25878 0.0174,0.0518 0.28678,0.0941 0.59857,0.0941 0.36682,0 0.56691,-0.36628 0.56691,-1.03776 z"
         id="path6" /><path
         style="fill:#ddae9c"
         d="m 104.69393,170.07538 c -3.77429,-1.58079 -13.78763,-17.12432 -21.042402,-32.66377 -2.872743,-6.1533 -6.431612,-15.16768 -6.228188,-15.77557 0.06013,-0.17969 1.104458,2.1739 2.320728,5.2302 2.837957,7.13135 7.930389,17.61953 11.928923,24.56836 5.107364,8.87581 10.713139,16.9409 11.775059,16.9409 0.73861,0 0.29391,-1.46878 -0.92687,-3.06137 -7.102845,-9.26608 -16.439229,-26.71772 -22.0038,-41.12967 -1.109996,-2.87483 -2.116439,-5.32485 -2.236538,-5.44448 -0.120099,-0.11963 -0.541044,-0.0168 -0.935434,0.22856 -0.655476,0.40776 -0.742508,0.29335 -1.013197,-1.33187 -0.162869,-0.97788 -0.300149,-3.13322 -0.305066,-4.78967 -0.0075,-2.53333 0.155867,-3.34599 1.02862,-5.1162 2.797108,-5.67337 9.906288,-9.725135 20.059929,-11.432841 4.355576,-0.732549 13.766696,-0.833691 18.018946,-0.19365 11.76563,1.770941 19.98516,6.315731 22.98266,12.707721 1.42559,3.03998 1.39542,7.62455 -0.08,12.15441 -3.84754,11.81296 -20.99229,39.77019 -28.91728,47.15422 -2.48314,2.31364 -3.01176,2.5471 -4.42611,1.95472 z m -1.27533,-28.05239 c 0,-1.57333 -0.1918,-1.75857 -1.13381,-1.09497 -0.42662,0.30054 -0.45,0.44661 -0.0945,0.59031 0.25983,0.10502 0.47242,0.60035 0.47242,1.10073 0,0.50038 0.17007,0.90979 0.37794,0.90979 0.20786,0 0.37793,-0.67764 0.37793,-1.50586 z m 2.29158,0.65881 c 0.0234,-0.82582 0.0343,-0.82346 0.4355,0.0941 0.37912,0.867 0.42479,0.88184 0.57964,0.18823 0.28166,-1.26169 0.85058,-1.56385 0.85058,-0.45175 0,0.76547 0.18664,1.01645 0.75588,1.01645 0.5589,0 0.77063,-0.26978 0.8125,-1.03528 l 0.0566,-1.03527 0.15745,1.03527 c 0.0866,0.5694 0.31622,1.03528 0.51028,1.03528 0.19406,0 0.37831,-0.46588 0.40946,-1.03528 l 0.0566,-1.03527 0.15745,1.03527 c 0.21179,1.39263 0.86311,1.32161 0.86311,-0.0941 0,-1.06665 -0.084,-1.1294 -1.51175,-1.1294 -0.94152,0 -1.523,0.1775 -1.54158,0.47058 -0.0239,0.37647 -0.068,0.37647 -0.22046,0 -0.10696,-0.26404 -0.8403,-0.47058 -1.67088,-0.47058 -1.39277,0 -1.48025,0.0668 -1.48025,1.1294 0,1.2966 0.74353,1.56581 0.77983,0.28234 z m -4.93713,-5.55285 v -2.25878 h -1.511749 -1.511746 v 2.25878 2.25879 h 1.511746 1.511749 z m 3.40143,1.72547 c 0,-0.29333 -0.21259,-0.63215 -0.47242,-0.75293 -0.37794,-0.17569 -0.37794,-0.26353 0,-0.43921 0.25983,-0.12078 0.47242,-0.4596 0.47242,-0.75293 0,-0.29333 -0.21259,-0.5467 -0.47242,-0.56305 -0.37794,-0.0238 -0.37794,-0.0677 0,-0.2196 0.95133,-0.38237 0.4912,-1.25653 -0.66139,-1.25653 h -1.13381 v 2.25878 2.25879 h 1.13381 c 0.72623,0 1.13381,-0.19172 1.13381,-0.53332 z m 3.77936,0.0212 c 0,-0.28169 -0.10815,-1.29814 -0.24034,-2.25879 -0.2223,-1.61558 -0.32155,-1.74663 -1.32278,-1.74663 -0.86933,0 -1.08325,0.16676 -1.08659,0.84704 -0.002,0.46588 -0.10958,1.48233 -0.23842,2.25879 l -0.23426,1.41174 h 1.5612 c 1.06458,0 1.56119,-0.16291 1.56119,-0.51215 z m 3.42396,0.0416 c 0.0124,-0.25882 0.1555,-1.27527 0.31802,-2.25879 l 0.29549,-1.7882 h -1.66395 -1.66396 l 0.24034,1.7882 c 0.34499,2.56689 0.43398,2.72937 1.49483,2.72937 0.52618,0 0.96684,-0.21176 0.97923,-0.47058 z m 3.47696,-1.12939 c 0.108,-0.87999 0.31839,-1.89644 0.46753,-2.25879 0.23293,-0.56594 0.0466,-0.65881 -1.32146,-0.65881 -1.36812,0 -1.5544,0.0929 -1.32146,0.65881 0.14913,0.36235 0.35952,1.3788 0.46752,2.25879 0.14658,1.19432 0.36308,1.59997 0.85394,1.59997 0.49085,0 0.70735,-0.40565 0.85393,-1.59997 z M 76.992884,120.34492 c 0.01813,-0.43856 0.107689,-0.52777 0.228336,-0.22745 0.109175,0.27176 0.09575,0.59646 -0.02984,0.72156 -0.125585,0.12509 -0.21491,-0.0973 -0.198499,-0.49411 z"
         id="path5" /><path
         style="fill:#b68779"
         d="m 105.4956,126.20883 c -0.12937,-0.20852 0.0307,-0.48076 0.35564,-0.60498 0.89588,-0.34244 0.86958,-8.23472 -0.0291,-8.73569 -0.34098,-0.19008 -0.50102,-0.53732 -0.35563,-0.77164 0.3365,-0.54236 1.83083,-0.55294 2.3691,-0.0168 0.29586,0.29471 0.48194,0.29471 0.66479,0 0.466,-0.75106 2.46921,-0.45119 3.43896,0.51478 2.20639,2.19779 0.47558,6.69438 -2.6031,6.7628 -1.23079,0.0273 -1.3803,0.13799 -1.3813,1.02204 -7.7e-4,0.69113 0.23933,1.054 0.79279,1.19817 0.43715,0.11388 0.68188,0.38736 0.5446,0.60861 -0.31638,0.50992 -3.48269,0.52883 -3.79674,0.0227 z m 5.07581,-4.29309 c 0.69309,-0.83187 0.85967,-2.95119 0.31335,-3.98647 -0.35971,-0.68165 -0.80621,-0.94116 -1.6193,-0.94116 h -1.12265 l -0.11104,2.72937 -0.11104,2.72936 h 1.10409 c 0.60725,0 1.30321,-0.23899 1.54659,-0.5311 z m -14.792315,1.07586 c -1.191954,-0.64442 -2.042257,-2.95556 -1.654132,-4.49595 0.684372,-2.71613 3.94326,-3.78794 5.504824,-1.81047 0.460803,0.58354 0.753493,1.42336 0.688823,1.97644 -0.10424,0.89138 -0.27144,0.97 -2.285602,1.07464 -1.854541,0.0964 -2.173135,0.21926 -2.173135,0.83837 0,1.17832 1.650784,2.02882 3.017022,1.55441 0.901654,-0.3131 1.140275,-0.28959 1.140275,0.11233 0,0.47428 -1.863151,1.35361 -2.796432,1.31979 -0.228813,-0.008 -0.877553,-0.26459 -1.441643,-0.56956 z m 2.726333,-5.01623 c 0,-0.38876 -0.244236,-0.90874 -0.542746,-1.15552 -0.734028,-0.60682 -2.102809,0.12396 -2.102809,1.12267 0,0.59437 0.259853,0.73968 1.322777,0.73968 1.042066,0 1.322778,-0.15 1.322778,-0.70683 z m 21.677302,5.22757 c -1.26102,-0.5069 -2.0246,-1.89946 -2.0246,-3.6923 0,-1.31721 0.22138,-1.85981 1.12681,-2.76171 0.95615,-0.95243 1.37113,-1.10483 2.74004,-1.00632 1.51546,0.10907 1.6204,0.19025 1.73166,1.33962 0.0858,0.88698 -0.0369,1.22351 -0.44614,1.22351 -0.31051,0 -0.61891,-0.37944 -0.68533,-0.8432 -0.14725,-1.0281 -1.01112,-1.24887 -2.01777,-0.51566 -1.08445,0.78988 -1.04404,3.67886 0.0669,4.78551 0.70301,0.70028 0.97554,0.75675 1.97581,0.40941 1.55029,-0.53833 1.89426,0.11093 0.45228,0.85371 -1.25731,0.64764 -1.73938,0.68189 -2.9197,0.20743 z m -36.794763,-0.33935 c 0,-0.18491 0.255107,-0.4337 0.566905,-0.55289 0.451945,-0.17275 0.566905,-0.98489 0.566905,-4.00496 0,-3.02007 -0.11496,-3.83222 -0.566905,-4.00497 -1.164886,-0.44527 -0.504589,-0.88907 1.322778,-0.88907 1.039325,0 1.889683,0.16941 1.889683,0.37646 0,0.20706 -0.255108,0.37647 -0.566905,0.37647 -0.41993,0 -0.566905,0.43921 -0.566905,1.69409 v 1.69409 h 2.078651 2.078651 v -1.69409 c 0,-0.93175 -0.170072,-1.69409 -0.377937,-1.69409 -0.207865,0 -0.377936,-0.16941 -0.377936,-0.37647 0,-0.20705 0.850357,-0.37646 1.889682,-0.37646 1.039326,0 1.889683,0.16941 1.889683,0.37646 0,0.20706 -0.255107,0.37647 -0.566905,0.37647 -0.469557,0 -0.566905,0.7111 -0.566905,4.14111 0,3.43 0.09735,4.1411 0.566905,4.1411 0.311798,0 0.566905,0.16941 0.566905,0.37647 0,0.20705 -0.850357,0.37646 -1.889683,0.37646 -1.039325,0 -1.889682,-0.16941 -1.889682,-0.37646 0,-0.20706 0.170071,-0.37647 0.377936,-0.37647 0.207865,0 0.377937,-0.84704 0.377937,-1.88232 v -1.88232 h -2.078651 -2.078651 v 1.88232 c 0,1.4222 0.138577,1.88232 0.566905,1.88232 0.311797,0 0.566905,0.16941 0.566905,0.37647 0,0.20705 -0.850358,0.37646 -1.889683,0.37646 -1.039325,0 -1.889683,-0.15128 -1.889683,-0.33618 z m 17.763013,-0.0403 c 0,-0.20706 0.25511,-0.37647 0.56691,-0.37647 0.47242,0 0.5669,-0.75293 0.5669,-4.51757 0,-3.76464 -0.0945,-4.51757 -0.5669,-4.51757 -0.3118,0 -0.56691,-0.15105 -0.56691,-0.33565 0,-0.42322 1.80184,-0.89226 2.285,-0.59481 0.19873,0.12234 0.36056,2.40856 0.36056,5.09378 0,4.07953 0.0922,4.87182 0.5669,4.87182 0.3118,0 0.56691,0.16941 0.56691,0.37647 0,0.20705 -0.85036,0.37646 -1.88968,0.37646 -1.03933,0 -1.88969,-0.16941 -1.88969,-0.37646 z m 12.84985,0 c 0,-0.20706 0.17007,-0.37647 0.37793,-0.37647 0.57784,0 0.48684,-5.54444 -0.0945,-5.75676 -0.80311,-0.29333 0.27353,-1.09909 1.27919,-0.95735 0.85231,0.12012 0.89903,0.27938 1.00314,3.42005 0.0601,1.81174 0.27265,3.29406 0.47242,3.29406 0.19977,0 0.36322,0.16941 0.36322,0.37647 0,0.20705 -0.76532,0.37646 -1.70071,0.37646 -0.93539,0 -1.70071,-0.16941 -1.70071,-0.37646 z m 10.96015,0 c 0,-0.20706 0.17008,-0.37647 0.37794,-0.37647 0.23096,0 0.37794,-1.75683 0.37794,-4.51757 0,-3.76464 -0.0945,-4.51757 -0.56691,-4.51757 -0.31179,0 -0.5669,-0.16941 -0.5669,-0.37647 0,-0.20705 0.21259,-0.37877 0.47242,-0.3816 0.25983,-0.003 0.85508,-0.10729 1.32278,-0.23214 0.83956,-0.22412 0.85035,-0.1801 0.85035,3.46717 v 3.69417 l 1.32155,-1.2759 c 0.85096,-0.82158 1.17016,-1.3691 0.89642,-1.53762 -0.79287,-0.48811 0.0873,-1.09883 1.5837,-1.09883 1.07199,0 1.48945,0.15827 1.48945,0.5647 0,0.31058 -0.22547,0.5647 -0.50103,0.5647 -0.27556,0 -0.89988,0.42291 -1.38737,0.9398 -0.81467,0.8638 -0.84292,1.02084 -0.34933,1.94198 0.29535,0.5512 1.00471,1.50148 1.57634,2.11173 0.57163,0.61025 1.03932,1.17633 1.03932,1.25796 0,0.0816 -0.76532,0.14842 -1.70071,0.14842 -0.9354,0 -1.70072,-0.16941 -1.70072,-0.37646 0,-0.20706 0.17606,-0.37647 0.39124,-0.37647 0.41957,0 0.10266,-0.73258 -0.88955,-2.05634 -0.47099,-0.62837 -0.6445,-0.66366 -1.1615,-0.23625 -0.77767,0.64289 -0.8071,2.29259 -0.0409,2.29259 0.3118,0 0.5669,0.16941 0.5669,0.37647 0,0.20705 -0.76532,0.37646 -1.70071,0.37646 -0.93539,0 -1.70072,-0.16941 -1.70072,-0.37646 z m -10.14005,-9.09913 c 0.0832,-0.58479 0.37669,-0.87718 0.88061,-0.87718 1.12555,0 1.0131,1.46957 -0.12473,1.63011 -0.73275,0.10338 -0.85967,-0.023 -0.75588,-0.75293 z"
         id="path4" /><path
         style="fill:#96675b"
         d="m 105.98857,125.75973 c 0.5697,-0.56748 0.6405,-8.95985 0.0756,-8.95985 -0.20787,0 -0.37794,-0.14965 -0.37794,-0.33256 0,-0.49652 1.63674,-0.82804 1.91042,-0.38695 0.15679,0.2527 0.57043,0.23013 1.22479,-0.0669 2.76628,-1.25549 5.0621,2.25387 3.47477,5.31148 -0.68562,1.32066 -1.6266,1.87478 -3.1837,1.87478 -1.0311,0 -1.15866,0.12228 -1.15866,1.11069 0,0.66064 0.26799,1.26617 0.66139,1.49441 0.51434,0.29841 0.24546,0.38627 -1.2094,0.39517 -1.45505,0.009 -1.77,-0.0889 -1.41726,-0.44031 z m 4.43904,-3.86047 c 0.66402,-0.66143 0.92766,-1.33643 0.92766,-2.37507 0,-1.94966 -0.6874,-2.82231 -2.09729,-2.66249 -1.1023,0.12495 -1.11648,0.15643 -1.2283,2.72796 -0.0794,1.8267 0.0331,2.69397 0.37793,2.91184 0.75251,0.47547 1.01734,0.39651 2.02,-0.60224 z m -27.039643,0.92405 c 0,-0.20706 0.255107,-0.37647 0.566905,-0.37647 0.469558,0 0.566905,-0.7111 0.566905,-4.1411 0,-3.43001 -0.09735,-4.14111 -0.566905,-4.14111 -0.311798,0 -0.566905,-0.16941 -0.566905,-0.37647 0,-0.20705 0.765322,-0.37646 1.700715,-0.37646 0.935393,0 1.700714,0.16941 1.700714,0.37646 0,0.20706 -0.170071,0.37647 -0.377936,0.37647 -0.207866,0 -0.377937,0.84704 -0.377937,1.88232 v 1.88232 h 2.267619 2.267619 v -1.88232 c 0,-1.4222 -0.138576,-1.88232 -0.566904,-1.88232 -0.311798,0 -0.566905,-0.16941 -0.566905,-0.37647 0,-0.20705 0.765321,-0.37646 1.700714,-0.37646 0.935393,0 1.700714,0.16941 1.700714,0.37646 0,0.20706 -0.170071,0.37647 -0.377936,0.37647 -0.229053,0 -0.377937,1.63134 -0.377937,4.14111 0,2.50976 0.148884,4.1411 0.377937,4.1411 0.207865,0 0.377936,0.16941 0.377936,0.37647 0,0.20705 -0.765321,0.37646 -1.700714,0.37646 -0.935393,0 -1.700714,-0.16941 -1.700714,-0.37646 0,-0.20706 0.255107,-0.37647 0.566905,-0.37647 0.428328,0 0.566904,-0.46012 0.566904,-1.88232 v -1.88232 h -2.267619 -2.267619 v 1.7467 c 0,1.22204 0.198666,1.89693 0.661389,2.24682 0.577013,0.43631 0.408261,0.50163 -1.322778,0.51208 -1.091292,0.007 -1.984167,-0.15744 -1.984167,-0.36449 z m 11.743463,-0.61547 c -0.544119,-0.68904 -0.783303,-1.54098 -0.783303,-2.79002 0,-1.54568 0.163229,-1.9349 1.162806,-2.77271 2.056425,-1.72363 4.506237,-0.91155 4.506237,1.49374 v 1.29628 h -2.056342 c -2.324674,0 -2.676702,0.28504 -2.048402,1.65864 0.525376,1.14859 1.423256,1.49184 3.073916,1.17516 1.151398,-0.2209 1.178658,-0.20137 0.486177,0.34841 -1.209579,0.9603 -3.424372,0.75138 -4.341089,-0.4095 z m 3.60393,-3.68446 c 0.346241,-0.89877 -0.569278,-2.15853 -1.474337,-2.0287 -0.819142,0.11751 -1.896369,1.69393 -1.544766,2.26062 0.328759,0.52987 2.798728,0.34014 3.019103,-0.23192 z m 2.41562,4.29993 c 0,-0.20706 0.25511,-0.37647 0.56691,-0.37647 0.47144,0 0.5669,-0.73786 0.5669,-4.38195 0,-3.7318 -0.0981,-4.45616 -0.66139,-4.88206 -0.58772,-0.44441 -0.50353,-0.50145 0.75588,-0.51209 l 1.41726,-0.012 v 4.75842 c 0,4.09033 0.0929,4.82863 0.66139,5.25853 0.57701,0.43631 0.40826,0.50163 -1.32278,0.51208 -1.09129,0.007 -1.98417,-0.15744 -1.98417,-0.36449 z m 12.84985,0 c 0,-0.20706 0.2551,-0.37647 0.5669,-0.37647 0.45352,0 0.56691,-0.56469 0.56691,-2.82348 0,-2.25879 -0.11339,-2.82348 -0.56691,-2.82348 -0.3118,0 -0.5669,-0.16941 -0.5669,-0.37647 0,-0.20705 0.24119,-0.37646 0.53599,-0.37646 0.2948,0 0.80501,-0.10283 1.13381,-0.22851 0.51816,-0.19806 0.59781,0.22831 0.59781,3.19995 0,2.79654 0.10449,3.42845 0.56691,3.42845 0.3118,0 0.5669,0.16941 0.5669,0.37647 0,0.20705 -0.76532,0.37646 -1.70071,0.37646 -0.93539,0 -1.70071,-0.16941 -1.70071,-0.37646 z m 5.32959,-0.33814 c -1.6744,-1.66787 -1.25846,-5.23221 0.7301,-6.25654 2.06689,-1.06466 3.76666,-0.61882 3.76666,0.98799 0,1.33798 -0.64736,1.42245 -1.13381,0.14795 -0.79659,-2.08702 -3.0235,-0.50029 -3.0235,2.15432 0,1.96916 1.14498,3.08576 2.87707,2.80577 1.3031,-0.21064 1.76934,0.23114 0.68242,0.6466 -1.22049,0.46652 -3.18898,0.22111 -3.89894,-0.48609 z m 5.63056,0.33814 c 0,-0.20706 0.17008,-0.37647 0.37794,-0.37647 0.23096,0 0.37794,-1.75683 0.37794,-4.51757 0,-2.76074 -0.14698,-4.51757 -0.37794,-4.51757 -0.20786,0 -0.37794,-0.16941 -0.37794,-0.37647 0,-0.20705 0.50406,-0.37646 1.12013,-0.37646 h 1.12012 l 0.10817,3.5551 0.10817,3.55511 1.28224,-1.52324 c 1.0232,-1.21551 1.17591,-1.59031 0.75588,-1.85525 -0.34672,-0.21869 0.094,-0.33398 1.29113,-0.33778 1.11672,-0.004 1.72744,0.13939 1.58393,0.3707 -0.12847,0.20706 -0.449,0.37647 -0.7123,0.37647 -0.2633,0 -0.86576,0.41038 -1.33881,0.91195 l -0.86008,0.91195 1.24642,1.81742 c 0.68554,0.99957 1.51062,2.02378 1.83353,2.27602 0.48459,0.37852 0.27362,0.4607 -1.20809,0.47058 -1.62045,0.0108 -2.43024,-0.46735 -1.38133,-0.81563 0.25792,-0.0856 0.0979,-0.67095 -0.4248,-1.55333 -0.80009,-1.35078 -0.87129,-1.38651 -1.54768,-0.77677 -0.74306,0.66984 -0.98191,2.40477 -0.33107,2.40477 0.20787,0 0.37794,0.16941 0.37794,0.37647 0,0.20705 -0.68029,0.37646 -1.51175,0.37646 -0.83146,0 -1.51175,-0.16941 -1.51175,-0.37646 z m -10.08225,-8.88491 c -0.3222,-0.83637 0.68432,-1.39031 1.33995,-0.73745 0.28443,0.28323 0.40194,0.70063 0.26115,0.92755 -0.38022,0.61281 -1.33548,0.49939 -1.6011,-0.1901 z"
         id="path3" /><path
         style="fill:#7a4c42"
         d="m 105.96967,125.96216 c 0.59234,-0.23808 0.68437,-9.16228 0.0945,-9.16228 -0.20787,0 -0.37794,-0.16941 -0.37794,-0.37647 0,-0.20705 0.42518,-0.37646 0.94484,-0.37646 0.51967,0 0.94484,0.17537 0.94484,0.38971 0,0.26864 0.22712,0.26864 0.73103,0 1.16661,-0.62192 2.87135,-0.45558 3.60481,0.35174 0.81689,0.89913 0.9453,3.32898 0.24483,4.63272 -0.59472,1.10694 -1.90317,1.77865 -3.46464,1.77865 -0.99071,0 -1.11603,0.12818 -1.11603,1.14153 0,0.83194 0.23062,1.23386 0.85036,1.48199 0.67406,0.26989 0.45859,0.33926 -1.03932,0.33461 -1.03933,-0.003 -1.6771,-0.0913 -1.41727,-0.19574 z m 4.62973,-3.89178 c 0.55337,-0.55122 0.75587,-1.25488 0.75587,-2.62657 0,-1.59119 -0.14477,-1.96813 -0.96032,-2.50042 -0.76903,-0.50192 -1.14546,-0.54276 -1.88969,-0.20498 -0.8572,0.38904 -0.92936,0.62459 -0.92936,3.03374 0,1.73731 0.1582,2.67553 0.47243,2.80183 0.97603,0.39231 1.81864,0.22597 2.55107,-0.5036 z m -26.739012,0.60534 c 0.936103,-0.70784 1.002279,-8.51109 0.07218,-8.51109 -0.324065,0 -0.484099,-0.16941 -0.355631,-0.37647 0.128467,-0.20705 0.903826,-0.37646 1.723019,-0.37646 0.819192,0 1.489441,0.16941 1.489441,0.37646 0,0.20706 -0.255107,0.37647 -0.566905,0.37647 -0.428328,0 -0.566905,0.46012 -0.566905,1.88232 v 1.88232 h 2.456588 2.456587 v -1.88232 c 0,-1.4222 -0.138576,-1.88232 -0.566904,-1.88232 -0.311798,0 -0.566905,-0.16941 -0.566905,-0.37647 0,-0.20705 0.765321,-0.37646 1.700714,-0.37646 0.935393,0 1.700714,0.16941 1.700714,0.37646 0,0.20706 -0.255107,0.37647 -0.566904,0.37647 -0.468395,0 -0.566905,0.69603 -0.566905,4.00549 0,3.37325 0.104394,4.08442 0.661389,4.5056 0.577923,0.43699 0.422916,0.50011 -1.228294,0.50011 -1.65121,0 -1.806217,-0.0631 -1.228294,-0.50011 0.462723,-0.34989 0.661389,-1.02478 0.661389,-2.24682 v -1.7467 h -2.456587 -2.456588 v 1.88232 c 0,1.4222 0.138577,1.88232 0.566905,1.88232 0.311798,0 0.566905,0.16941 0.566905,0.37647 0,0.20705 -0.807839,0.37107 -1.795198,0.36449 -1.573846,-0.0105 -1.713648,-0.0736 -1.133811,-0.51208 z m 11.46131,-0.35427 c -1.262885,-1.25796 -1.354731,-3.80796 -0.190268,-5.28257 0.633803,-0.80261 1.100129,-0.99193 2.44329,-0.99193 1.814237,0 2.44245,0.62302 2.44245,2.42227 0,0.92958 -0.08528,0.96591 -2.267615,0.96591 -2.512194,0 -2.870121,0.48148 -1.648944,2.21817 0.533699,0.75899 0.849677,0.8539 2.300487,0.69101 2.131432,-0.2393 1.593797,0.45263 -0.57705,0.74267 -1.29199,0.17262 -1.679573,0.0541 -2.50235,-0.76553 z m 3.561667,-4.12865 c 0,-1.65484 -1.638543,-2.34223 -2.807529,-1.1778 -0.326645,0.32537 -0.5939,0.9183 -0.5939,1.31763 0,0.60951 0.272954,0.72603 1.700714,0.72603 1.522701,0 1.700715,-0.0906 1.700715,-0.86586 z m 2.645555,4.63051 c 0,-0.20706 0.17007,-0.37647 0.37794,-0.37647 0.23096,0 0.37793,-1.75683 0.37793,-4.51757 0,-2.76074 -0.14697,-4.51757 -0.37793,-4.51757 -0.20787,0 -0.37794,-0.16941 -0.37794,-0.37647 0,-0.20705 0.42518,-0.37646 0.94484,-0.37646 h 0.94484 v 4.75842 c 0,4.09033 0.0929,4.82863 0.66139,5.25853 0.58332,0.44108 0.4718,0.50152 -0.94484,0.51208 -0.88343,0.007 -1.60623,-0.15744 -1.60623,-0.36449 z m 12.94433,-0.14759 c 0.51548,-0.38979 0.66139,-1.06314 0.66139,-3.05236 0,-1.98922 -0.14591,-2.66257 -0.66139,-3.05236 -0.59347,-0.44874 -0.53524,-0.50133 0.5669,-0.51208 l 1.22829,-0.012 v 3.06433 c 0,2.47691 0.12679,3.16019 0.66139,3.56444 0.57793,0.43699 0.42292,0.50011 -1.22829,0.50011 -1.65121,0 -1.80622,-0.0631 -1.22829,-0.50011 z m 4.99724,-0.33054 c -0.82167,-0.70402 -0.99742,-1.17477 -0.99742,-2.67171 0,-2.55028 1.04769,-3.62652 3.5303,-3.62652 1.69343,0 1.82381,0.0673 1.82381,0.94116 0,1.12611 -0.60745,1.24712 -0.94485,0.18823 -0.30471,-0.95634 -1.7441,-0.99221 -2.58698,-0.0645 -0.80666,0.88788 -0.8106,3.39832 -0.007,4.54097 0.52838,0.75144 0.84458,0.84958 2.17314,0.67452 1.41647,-0.18666 1.48951,-0.15696 0.82115,0.33377 -1.07625,0.79021 -2.67574,0.65764 -3.81203,-0.31595 z m 5.86843,0.47813 c 0,-0.20706 0.17007,-0.37647 0.37794,-0.37647 0.23031,0 0.37793,-1.71162 0.37793,-4.38195 0,-3.7318 -0.0981,-4.45616 -0.66138,-4.88206 -0.59347,-0.44875 -0.53524,-0.50134 0.5669,-0.51209 l 1.22829,-0.012 v 3.66499 3.66499 l 1.60623,-1.60482 c 1.32589,-1.32472 1.50729,-1.66771 1.03933,-1.96513 -0.41894,-0.26627 -0.19843,-0.36183 0.84481,-0.36609 l 1.41171,-0.006 -1.38876,1.26774 -1.38876,1.26775 1.24474,1.9322 c 0.68461,1.06271 1.39708,1.9322 1.58328,1.9322 0.18619,0 0.33854,0.16941 0.33854,0.37647 0,0.20705 -0.61345,0.37646 -1.36322,0.37646 -1.09883,0 -1.31785,-0.11775 -1.12932,-0.60714 0.12864,-0.33393 -0.12761,-1.18979 -0.56945,-1.90192 -0.76702,-1.23623 -0.83558,-1.26572 -1.51624,-0.65214 -0.74605,0.67254 -0.98746,2.40827 -0.33495,2.40827 0.20787,0 0.37794,0.16941 0.37794,0.37647 0,0.20705 -0.59525,0.37646 -1.32278,0.37646 -0.72753,0 -1.32278,-0.16941 -1.32278,-0.37646 z m -10.39325,-8.65868 c -0.31635,-0.50987 0.11052,-1.1294 0.77817,-1.1294 0.29953,0 0.5446,0.33882 0.5446,0.75293 0,0.7794 -0.91177,1.03889 -1.32277,0.37647 z"
         id="path2" /><path
         style="fill:#76483e"
         d="m 106.15864,125.80487 c 0.56698,-0.32895 0.66139,-0.97969 0.66139,-4.55874 0,-3.53471 -0.10143,-4.25171 -0.66139,-4.67513 -0.60125,-0.45464 -0.56689,-0.50119 0.37794,-0.51208 0.57465,-0.007 1.04914,0.19842 1.06127,0.45861 0.0121,0.25882 0.0546,1.74115 0.0945,3.29406 0.072,2.80199 0.0807,2.82442 1.14529,2.94582 1.69671,0.19349 2.51765,-0.82844 2.51765,-3.13405 0,-2.20665 -0.90368,-3.44616 -2.25571,-3.09397 -0.42286,0.11015 -0.67352,0.0467 -0.55703,-0.14109 0.11649,-0.18774 0.78736,-0.34135 1.49084,-0.34135 1.63613,0 2.45571,1.10559 2.45571,3.31267 0,2.17289 -1.54621,3.84015 -3.56133,3.84015 -1.28779,0 -1.35185,0.0612 -1.35185,1.29144 0,1.03996 0.1656,1.32322 0.85036,1.45459 0.4677,0.0897 0,0.18107 -1.03932,0.20297 -1.45161,0.0306 -1.73636,-0.0491 -1.2283,-0.3439 z m -22.298252,-3.01172 c 0.565687,-0.3282 0.661389,-0.97569 0.661389,-4.47475 0,-2.92058 -0.135161,-4.14535 -0.472421,-4.28091 -0.259831,-0.10444 0.292901,-0.18361 1.228294,-0.17594 0.935393,0.008 1.403089,0.0914 1.039325,0.18612 -0.517008,0.13458 -0.661389,0.57705 -0.661389,2.02688 v 1.85472 h 2.456588 2.456587 v -1.85095 c 0,-1.12851 -0.184388,-1.92506 -0.47242,-2.04083 -0.259832,-0.10444 0.2929,-0.18361 1.228293,-0.17594 0.935393,0.008 1.40309,0.0914 1.039326,0.18612 -0.578763,0.15066 -0.661389,0.68372 -0.661389,4.26696 0,3.50265 0.09564,4.15029 0.661389,4.47852 0.512486,0.29734 0.235953,0.38373 -1.228294,0.38373 -1.464247,0 -1.74078,-0.0864 -1.228294,-0.38373 0.501876,-0.29117 0.661389,-0.87858 0.661389,-2.43557 v -2.05184 h -2.456587 -2.456588 v 2.05184 c 0,1.55699 0.159514,2.1444 0.661389,2.43557 0.512487,0.29734 0.235954,0.38373 -1.228293,0.38373 -1.464247,0 -1.74078,-0.0864 -1.228294,-0.38373 z m 12.277801,0.14613 c -0.823811,-0.21401 -1.790062,-2.0039 -1.790062,-3.31592 0,-1.24409 0.922073,-3.03846 1.717646,-3.34256 2.03563,-0.7781 3.951397,0.26366 3.951397,2.14869 0,0.97814 -0.06201,1.00564 -2.267615,1.00564 -2.509316,0 -2.869946,0.48173 -1.654562,2.21018 0.502436,0.71453 0.881785,0.84632 2.102332,0.73038 1.286784,-0.12224 1.399154,-0.0758 0.826454,0.3413 -0.658928,0.47995 -1.611348,0.55332 -2.88559,0.22229 z m 2.745176,-4.60275 c 0,-1.36478 -0.441077,-1.91312 -1.538884,-1.91312 -1.091097,0 -1.862545,0.84736 -1.862545,2.04581 0,0.44762 0.409189,0.58944 1.700714,0.58944 1.424586,0 1.700715,-0.11724 1.700715,-0.72213 z m 3.117975,4.45662 c 0.57051,-0.331 0.66139,-0.99152 0.66139,-4.80729 0,-2.93861 -0.15225,-4.57523 -0.45352,-4.87533 -0.35274,-0.35137 -0.26876,-0.45176 0.37793,-0.45176 0.81386,0 0.83146,0.10324 0.83146,4.87533 0,4.24602 0.0854,4.92486 0.66139,5.25905 0.51951,0.30141 0.29656,0.38373 -1.03932,0.38373 -1.33589,0 -1.55884,-0.0823 -1.03933,-0.38373 z m 12.47191,0 c 0.53624,-0.31111 0.66139,-0.91444 0.66139,-3.1885 0,-1.61887 -0.1598,-2.80477 -0.37794,-2.80477 -0.20787,0 -0.37794,-0.16941 -0.37794,-0.37647 0,-0.20705 0.42518,-0.37646 0.94484,-0.37646 0.93727,0 0.94484,0.0269 0.94484,3.36057 0,2.88399 0.0938,3.385 0.66139,3.53275 0.36377,0.0947 -0.18896,0.18666 -1.22829,0.20438 -1.45409,0.0248 -1.73722,-0.0562 -1.22829,-0.3515 z m 5.03542,-0.47266 c -1.35594,-1.35065 -1.37837,-4.02126 -0.0449,-5.34949 1.6137,-1.60742 5.19602,-1.06465 4.14573,0.62814 -0.19748,0.31828 -0.37769,0.20847 -0.58822,-0.35843 -0.21899,-0.5897 -0.61895,-0.8173 -1.43621,-0.8173 -1.39766,0 -1.91516,0.85072 -1.91516,3.14831 0,2.19946 0.75956,2.98976 2.6966,2.80575 1.77057,-0.16819 1.34495,0.3897 -0.52831,0.69251 -1.12227,0.18141 -1.52505,0.0518 -2.32949,-0.74949 z m 6.1326,0.42753 c 0.62544,-0.62301 0.62544,-9.01449 0,-9.63749 -0.35274,-0.35137 -0.22676,-0.45176 0.56691,-0.45176 h 1.02042 v 3.66499 3.66499 l 1.60623,-1.60482 c 1.32589,-1.32472 1.50729,-1.66771 1.03933,-1.96513 -0.41529,-0.26395 -0.16379,-0.36186 0.94035,-0.36609 l 1.50726,-0.006 -1.41277,1.00129 c -0.77703,0.5507 -1.41205,1.27069 -1.41115,1.59997 8.9e-4,0.32928 0.67857,1.48808 1.50594,2.57512 l 1.50432,1.97644 h -1.39256 c -1.04658,0 -1.28497,-0.10718 -0.95949,-0.43139 0.32548,-0.3242 0.22688,-0.79115 -0.39683,-1.87942 -0.8736,-1.52427 -1.33123,-1.74504 -2.0771,-1.00207 -0.59752,0.59519 -0.58379,2.82132 0.0189,3.06356 0.25984,0.10443 -0.19936,0.20325 -1.02042,0.2196 -1.16111,0.0231 -1.39207,-0.0707 -1.03933,-0.42203 z m -10.50663,-8.92849 c 0,-0.46242 0.24402,-0.7843 0.59461,-0.7843 0.35195,0 0.54475,0.25614 0.47242,0.62762 -0.18388,0.94446 -1.06703,1.07415 -1.06703,0.15668 z"
         id="path1" /></g></g></svg>
